<?xml version="1.0" standalone="no"?>
<!DOCTYPE svg PUBLIC "-//W3C//DTD SVG 20010904//EN"
 "http://www.w3.org/TR/2001/REC-SVG-20010904/DTD/svg10.dtd">
<svg version="1.0" xmlns="http://www.w3.org/2000/svg"
 width="360.000000pt" height="360.000000pt" viewBox="0 0 360.000000 360.000000"
 preserveAspectRatio="xMidYMid meet">

<g transform="translate(0.000000,360.000000) scale(0.100000,-0.100000)"
fill="#000000" stroke="none">
<path d="M2095 3314 c-8 -9 -25 -35 -37 -58 -11 -22 -38 -61 -58 -86 -42 -50
-140 -234 -140 -263 0 -10 -8 -29 -17 -43 -24 -38 -77 -160 -135 -314 -66
-176 -70 -184 -115 -202 -59 -25 -228 -88 -236 -88 -3 0 -31 -11 -61 -25 -30
-14 -59 -25 -64 -25 -6 0 -29 -9 -53 -20 -62 -28 -72 -26 -67 10 3 20 0 30 -9
30 -7 0 -13 9 -13 20 0 31 27 90 42 90 20 0 54 82 92 220 19 69 42 145 50 169
20 56 20 105 0 125 -18 19 -14 19 -68 5 -38 -9 -46 -17 -68 -62 -14 -29 -33
-74 -43 -102 -9 -27 -20 -59 -25 -70 -29 -79 -43 -124 -62 -205 -6 -25 -17
-54 -24 -65 -14 -22 -39 -89 -76 -209 -19 -59 -27 -72 -62 -93 -21 -14 -60
-32 -85 -40 -25 -8 -58 -21 -73 -29 -14 -8 -32 -14 -40 -14 -7 0 -34 -11 -60
-25 -26 -14 -53 -25 -61 -25 -7 0 -40 -13 -73 -28 -116 -56 -125 -58 -141 -36
-8 10 -16 29 -20 42 -10 43 -48 21 -59 -36 -20 -100 75 -139 199 -82 23 10 98
40 166 66 68 25 138 55 155 65 17 10 41 19 54 19 22 0 22 -1 7 -30 -8 -16 -18
-51 -22 -77 -6 -49 -46 -150 -103 -262 -37 -75 -141 -382 -165 -491 -10 -41
-28 -113 -41 -159 -29 -101 -30 -115 -5 -77 11 17 17 34 15 38 -3 5 1 19 9 32
9 13 27 52 42 87 15 35 40 92 56 127 16 35 29 72 29 82 0 10 8 32 18 49 14 25
15 34 5 50 -9 15 -10 28 -3 46 9 24 8 26 -11 20 -15 -5 -19 -4 -15 4 4 6 15
11 24 11 10 0 37 20 61 45 23 24 51 47 62 50 10 4 19 13 19 20 0 8 11 31 25
51 14 20 25 44 25 53 0 10 7 26 15 37 8 10 15 27 15 37 0 10 11 40 25 67 14
27 24 53 23 57 -4 13 33 103 42 103 5 0 12 10 16 22 6 21 77 98 89 98 3 0 11
4 18 10 56 46 76 60 85 60 5 0 22 10 37 22 36 28 95 58 116 58 9 0 42 14 73
30 31 17 56 26 56 20 0 -5 5 -10 10 -10 6 0 10 7 10 15 0 8 9 15 20 15 10 0
35 8 55 17 19 9 37 14 41 11 5 -6 -13 -56 -53 -147 -8 -19 -37 -106 -64 -194
-28 -88 -67 -197 -88 -241 -21 -45 -46 -103 -56 -131 -10 -27 -24 -57 -31 -65
-21 -25 -65 -154 -60 -174 3 -11 -3 -39 -13 -62 -11 -23 -22 -57 -26 -75 -4
-19 -13 -41 -19 -49 -15 -18 -33 -79 -40 -132 l-5 -38 32 16 c37 19 127 104
127 120 0 5 13 20 28 31 34 25 83 118 69 132 -5 5 -5 17 2 29 6 11 9 27 6 34
-3 7 11 30 30 51 19 21 38 49 41 63 4 14 13 28 20 31 18 7 100 162 108 206 7
38 32 93 46 102 17 10 21 -60 28 -500 l7 -440 114 -3 c68 -2 118 1 124 7 7 7
12 164 14 428 2 230 5 424 8 431 3 9 72 12 297 12 l293 0 37 -25 c21 -14 50
-47 65 -73 l28 -47 3 -368 3 -368 122 3 122 3 0 435 c0 434 0 435 -23 482 -13
26 -45 70 -73 99 -27 28 -49 54 -49 58 0 4 21 13 46 20 25 8 54 23 65 34 10
12 19 16 19 11 0 -17 96 -16 110 1 7 8 21 15 30 15 18 0 165 92 185 115 6 6
22 20 38 29 45 30 31 40 -15 12 -73 -46 -261 -133 -310 -145 -54 -13 -98 -14
-98 -3 1 9 47 62 55 62 3 0 43 25 90 56 86 56 146 118 138 142 -3 7 0 19 6 26
22 26 39 105 31 140 -5 22 -4 36 2 38 6 2 3 12 -6 21 -22 21 -89 23 -110 2 -8
-8 -19 -15 -25 -15 -19 0 -101 -61 -101 -76 0 -8 -3 -14 -7 -14 -9 0 -60 -40
-83 -64 -8 -9 -36 -38 -61 -64 -25 -27 -63 -75 -84 -108 -34 -52 -39 -67 -39
-120 0 -34 4 -68 11 -75 9 -12 -15 -14 -155 -13 -92 0 -193 1 -225 2 l-57 2
16 24 c8 14 19 46 22 73 6 38 12 50 34 60 25 12 58 74 58 109 0 27 43 90 72
107 25 14 29 14 43 1 8 -9 15 -24 15 -34 0 -10 5 -22 10 -25 6 -3 10 -16 10
-29 0 -12 5 -27 10 -32 7 -7 4 -16 -10 -29 -26 -23 -27 -75 -2 -75 22 1 51 18
94 56 46 40 59 64 22 37 -33 -24 -69 -33 -69 -18 0 6 6 40 14 76 24 121 -15
183 -108 174 -50 -5 -108 -48 -162 -119 -19 -25 -37 -46 -41 -46 -4 0 -10 20
-14 45 -8 55 -15 60 -47 35 -20 -16 -27 -34 -36 -99 -7 -43 -25 -125 -41 -182
-17 -57 -30 -105 -30 -106 0 -2 -43 -3 -96 -3 -87 0 -96 2 -91 18 9 29 29 84
49 135 11 27 22 69 25 95 5 44 3 48 -25 65 -56 32 -54 34 -140 -153 l-11 -25
4 25 c2 14 7 41 10 60 10 70 23 109 44 135 27 35 99 97 132 114 15 7 32 24 38
37 6 14 16 21 25 18 17 -6 86 52 86 73 0 11 7 14 25 9 13 -3 43 1 67 10 24 9
61 21 83 28 22 7 53 18 68 24 16 7 33 12 38 12 5 0 17 4 27 9 9 6 64 28 122
50 58 22 102 41 99 41 -22 1 -192 -48 -384 -112 -138 -45 -165 -57 -165 -73 0
-7 -12 -17 -26 -24 -34 -15 -41 -8 -9 9 23 12 35 56 20 72 -12 12 -102 -16
-126 -38 -14 -13 -28 -22 -32 -18 -5 5 -1 20 24 79 4 11 13 38 18 60 6 22 17
49 25 60 9 11 16 28 16 38 0 9 5 17 10 17 6 0 10 7 10 15 0 9 27 67 60 131 33
63 60 121 60 127 1 11 20 51 76 154 14 26 15 36 5 61 -20 49 -101 70 -136 36z
m335 -918 c0 -3 -4 -8 -10 -11 -5 -3 -10 -1 -10 4 0 6 5 11 10 11 6 0 10 -2
10 -4z m605 -63 c-11 -7 -24 -13 -30 -13 -6 0 -28 -20 -50 -45 -35 -42 -151
-123 -160 -113 -17 17 227 204 248 191 6 -3 2 -12 -8 -20z m-1485 -28 c-7 -8
-16 -15 -21 -15 -5 0 -6 7 -3 15 4 8 13 15 21 15 13 0 13 -3 3 -15z m216 -305
c1 -49 0 -50 -28 -50 -27 0 -35 9 -20 24 4 4 7 11 7 14 0 6 35 62 39 62 0 0 2
-22 2 -50z m-119 -172 c-3 -8 -6 -5 -6 6 -1 11 2 17 5 13 3 -3 4 -12 1 -19z"/>
<path d="M2695 2740 c-19 -8 -19 -9 3 -9 12 -1 22 4 22 9 0 6 -1 10 -2 9 -2 0
-12 -4 -23 -9z"/>
<path d="M3329 2210 c-13 -10 -19 -19 -13 -20 6 0 19 9 29 20 23 26 14 26 -16
0z"/>
<path d="M3162 1929 l-22 -8 2 -543 3 -543 123 -3 122 -3 0 546 c0 428 -3 546
-12 550 -28 8 -195 12 -216 4z"/>
<path d="M941 1834 c0 -11 3 -14 6 -6 3 7 2 16 -1 19 -3 4 -6 -2 -5 -13z"/>
<path d="M2168 1489 c-17 -9 -18 -36 -18 -329 l0 -320 23 -5 c12 -3 72 -5 132
-3 l110 3 3 324 c2 253 -1 326 -10 333 -19 11 -220 9 -240 -3z"/>
</g>
</svg>
